# xmcd CD database file
#
# Track frame offsets:
#	150
#	14978
#	28907
#	39259
#	53687
#	73649
#	95305
#	108429
#	126811
#	137909
#	160680
#	181876
#	193212
#
# Disc length: 2765 seconds
#
# Revision: 0
# Processed by: cddbd v1.5.1PL0 Copyright (c) Steve Scherf et al.
# Submitted via: CDex 1.51
#
DISCID=b40acb0d
DTITLE=Venice Jazz Project - Venice Jazz Project
DYEAR=1900
DGENRE=Jazz
TTITLE0=Fly me to the moon
TTITLE1=Gentle rain
TTITLE2=When you smile
TTITLE3=Moon dance
TTITLE4=October's moon
TTITLE5=Night and day
TTITLE6=Bye bye baby
TTITLE7=Autumn leaves
TTITLE8=Punani blues
TTITLE9=Boulevard of broken dreams
TTITLE10=At last
TTITLE11=C jam blues
TTITLE12=Some day my prince will come
EXTD=
EXTT0=
EXTT1=
EXTT2=
EXTT3=
EXTT4=
EXTT5=
EXTT6=
EXTT7=
EXTT8=
EXTT9=
EXTT10=
EXTT11=
EXTT12=
PLAYORDER=
